<?xml version="1.0" encoding="UTF-8" standalone="no"?>
<!DOCTYPE svg PUBLIC "-//W3C//DTD SVG 1.1//EN"
 "http://www.w3.org/Graphics/SVG/1.1/DTD/svg11.dtd">
<!-- Generated by graphviz version 5.0.0 (20220707.1540)
 -->
<!-- Title: dependencies Pages: 1 -->
<svg width="650pt" height="174pt"
 viewBox="0.00 0.00 650.00 173.80" xmlns="http://www.w3.org/2000/svg" xmlns:xlink="http://www.w3.org/1999/xlink">
<g id="graph0" class="graph" transform="scale(1 1) rotate(0) translate(4 169.8)">
<title>dependencies</title>
<polygon fill="white" stroke="transparent" points="-4,4 -4,-169.8 646,-169.8 646,4 -4,4"/>
<text text-anchor="middle" x="321" y="-8.2" font-family="sans-serif" font-size="14.00">dependencies</text>
<g id="clust1" class="cluster">
<title>cluster_AuthModule</title>
<polygon fill="none" stroke="black" stroke-dasharray="1,5" points="8,-32.8 8,-157.8 634,-157.8 634,-32.8 8,-32.8"/>
</g>
<g id="clust2" class="cluster">
<title>cluster_AuthModule_declarations</title>
<polygon fill="none" stroke="black" points="172,-40.8 172,-92.8 626,-92.8 626,-40.8 172,-40.8"/>
</g>
<g id="clust6" class="cluster">
<title>cluster_AuthModule_imports</title>
<polygon fill="none" stroke="black" points="16,-40.8 16,-92.8 164,-92.8 164,-40.8 16,-40.8"/>
</g>
<!-- LoginComponent -->
<g id="node1" class="node">
<title>LoginComponent</title>
<polygon fill="#ffffb3" stroke="black" points="618.27,-84.8 503.73,-84.8 503.73,-48.8 618.27,-48.8 618.27,-84.8"/>
<text text-anchor="middle" x="561" y="-62.6" font-family="Times,serif" font-size="14.00">LoginComponent</text>
</g>
<!-- AuthModule -->
<g id="node4" class="node">
<title>AuthModule</title>
<polygon fill="#8dd3c7" stroke="black" points="365.55,-149.8 362.55,-153.8 341.55,-153.8 338.55,-149.8 278.45,-149.8 278.45,-113.8 365.55,-113.8 365.55,-149.8"/>
<text text-anchor="middle" x="322" y="-127.6" font-family="Times,serif" font-size="14.00">AuthModule</text>
</g>
<!-- LoginComponent&#45;&gt;AuthModule -->
<g id="edge1" class="edge">
<title>LoginComponent&#45;&gt;AuthModule</title>
<path fill="none" stroke="black" d="M561,-84.91C561,-104.14 561,-131.8 561,-131.8 561,-131.8 375.56,-131.8 375.56,-131.8"/>
<polygon fill="black" stroke="black" points="375.56,-128.3 365.56,-131.8 375.56,-135.3 375.56,-128.3"/>
</g>
<!-- ResetPasswordComponent -->
<g id="node2" class="node">
<title>ResetPasswordComponent</title>
<polygon fill="#ffffb3" stroke="black" points="486.1,-84.8 319.9,-84.8 319.9,-48.8 486.1,-48.8 486.1,-84.8"/>
<text text-anchor="middle" x="403" y="-62.6" font-family="Times,serif" font-size="14.00">ResetPasswordComponent</text>
</g>
<!-- ResetPasswordComponent&#45;&gt;AuthModule -->
<g id="edge2" class="edge">
<title>ResetPasswordComponent&#45;&gt;AuthModule</title>
<path fill="none" stroke="black" d="M342.86,-84.91C342.86,-84.91 342.86,-103.79 342.86,-103.79"/>
<polygon fill="black" stroke="black" points="339.36,-103.79 342.86,-113.79 346.36,-103.79 339.36,-103.79"/>
</g>
<!-- SignupComponent -->
<g id="node3" class="node">
<title>SignupComponent</title>
<polygon fill="#ffffb3" stroke="black" points="301.51,-84.8 180.49,-84.8 180.49,-48.8 301.51,-48.8 301.51,-84.8"/>
<text text-anchor="middle" x="241" y="-62.6" font-family="Times,serif" font-size="14.00">SignupComponent</text>
</g>
<!-- SignupComponent&#45;&gt;AuthModule -->
<g id="edge3" class="edge">
<title>SignupComponent&#45;&gt;AuthModule</title>
<path fill="none" stroke="black" d="M289.86,-84.91C289.86,-84.91 289.86,-103.79 289.86,-103.79"/>
<polygon fill="black" stroke="black" points="286.36,-103.79 289.86,-113.79 293.36,-103.79 286.36,-103.79"/>
</g>
<!-- AuthRoutingModule -->
<g id="node5" class="node">
<title>AuthRoutingModule</title>
<polygon fill="#8dd3c7" stroke="black" points="156.17,-84.8 153.17,-88.8 132.17,-88.8 129.17,-84.8 23.83,-84.8 23.83,-48.8 156.17,-48.8 156.17,-84.8"/>
<text text-anchor="middle" x="90" y="-62.6" font-family="Times,serif" font-size="14.00">AuthRoutingModule</text>
</g>
<!-- AuthRoutingModule&#45;&gt;AuthModule -->
<g id="edge4" class="edge">
<title>AuthRoutingModule&#45;&gt;AuthModule</title>
<path fill="none" stroke="black" d="M90,-84.91C90,-104.14 90,-131.8 90,-131.8 90,-131.8 268.36,-131.8 268.36,-131.8"/>
<polygon fill="black" stroke="black" points="268.36,-135.3 278.36,-131.8 268.36,-128.3 268.36,-135.3"/>
</g>
</g>
</svg>
