<?xml version="1.0" encoding="UTF-8" standalone="no"?>
<!DOCTYPE svg PUBLIC "-//W3C//DTD SVG 1.1//EN"
 "http://www.w3.org/Graphics/SVG/1.1/DTD/svg11.dtd">
<!-- Generated by graphviz version 5.0.0 (20220707.1540)
 -->
<!-- Title: dependencies Pages: 1 -->
<svg width="870pt" height="174pt"
 viewBox="0.00 0.00 870.00 173.80" xmlns="http://www.w3.org/2000/svg" xmlns:xlink="http://www.w3.org/1999/xlink">
<g id="graph0" class="graph" transform="scale(1 1) rotate(0) translate(4 169.8)">
<title>dependencies</title>
<polygon fill="white" stroke="transparent" points="-4,4 -4,-169.8 866,-169.8 866,4 -4,4"/>
<text text-anchor="middle" x="431" y="-8.2" font-family="sans-serif" font-size="14.00">dependencies</text>
<g id="clust1" class="cluster">
<title>cluster_AdminModule</title>
<polygon fill="none" stroke="black" stroke-dasharray="1,5" points="8,-32.8 8,-157.8 854,-157.8 854,-32.8 8,-32.8"/>
</g>
<g id="clust8" class="cluster">
<title>cluster_AdminModule_imports</title>
<polygon fill="none" stroke="black" points="686,-40.8 686,-92.8 846,-92.8 846,-40.8 686,-40.8"/>
</g>
<g id="clust2" class="cluster">
<title>cluster_AdminModule_declarations</title>
<polygon fill="none" stroke="black" points="16,-40.8 16,-92.8 678,-92.8 678,-40.8 16,-40.8"/>
</g>
<!-- HeaderComponent -->
<g id="node1" class="node">
<title>HeaderComponent</title>
<polygon fill="#ffffb3" stroke="black" points="669.75,-84.8 548.25,-84.8 548.25,-48.8 669.75,-48.8 669.75,-84.8"/>
<text text-anchor="middle" x="609" y="-62.6" font-family="Times,serif" font-size="14.00">HeaderComponent</text>
</g>
<!-- AdminModule -->
<g id="node6" class="node">
<title>AdminModule</title>
<polygon fill="#8dd3c7" stroke="black" points="454.44,-149.8 451.44,-153.8 430.44,-153.8 427.44,-149.8 355.56,-149.8 355.56,-113.8 454.44,-113.8 454.44,-149.8"/>
<text text-anchor="middle" x="405" y="-127.6" font-family="Times,serif" font-size="14.00">AdminModule</text>
</g>
<!-- HeaderComponent&#45;&gt;AdminModule -->
<g id="edge1" class="edge">
<title>HeaderComponent&#45;&gt;AdminModule</title>
<path fill="none" stroke="black" d="M609,-84.82C609,-102.17 609,-125.8 609,-125.8 609,-125.8 464.38,-125.8 464.38,-125.8"/>
<polygon fill="black" stroke="black" points="464.38,-122.3 454.38,-125.8 464.38,-129.3 464.38,-122.3"/>
</g>
<!-- HomeComponent -->
<g id="node2" class="node">
<title>HomeComponent</title>
<polygon fill="#ffffb3" stroke="black" points="529.55,-84.8 414.45,-84.8 414.45,-48.8 529.55,-48.8 529.55,-84.8"/>
<text text-anchor="middle" x="472" y="-62.6" font-family="Times,serif" font-size="14.00">HomeComponent</text>
</g>
<!-- HomeComponent&#45;&gt;AdminModule -->
<g id="edge2" class="edge">
<title>HomeComponent&#45;&gt;AdminModule</title>
<path fill="none" stroke="black" d="M434.22,-84.91C434.22,-84.91 434.22,-103.79 434.22,-103.79"/>
<polygon fill="black" stroke="black" points="430.72,-103.79 434.22,-113.79 437.72,-103.79 430.72,-103.79"/>
</g>
<!-- MenuComponent -->
<g id="node3" class="node">
<title>MenuComponent</title>
<polygon fill="#ffffb3" stroke="black" points="395.99,-84.8 282.01,-84.8 282.01,-48.8 395.99,-48.8 395.99,-84.8"/>
<text text-anchor="middle" x="339" y="-62.6" font-family="Times,serif" font-size="14.00">MenuComponent</text>
</g>
<!-- MenuComponent&#45;&gt;AdminModule -->
<g id="edge3" class="edge">
<title>MenuComponent&#45;&gt;AdminModule</title>
<path fill="none" stroke="black" d="M375.89,-84.91C375.89,-84.91 375.89,-103.79 375.89,-103.79"/>
<polygon fill="black" stroke="black" points="372.39,-103.79 375.89,-113.79 379.39,-103.79 372.39,-103.79"/>
</g>
<!-- OrderComponent -->
<g id="node4" class="node">
<title>OrderComponent</title>
<polygon fill="#ffffb3" stroke="black" points="263.98,-84.8 150.02,-84.8 150.02,-48.8 263.98,-48.8 263.98,-84.8"/>
<text text-anchor="middle" x="207" y="-62.6" font-family="Times,serif" font-size="14.00">OrderComponent</text>
</g>
<!-- OrderComponent&#45;&gt;AdminModule -->
<g id="edge4" class="edge">
<title>OrderComponent&#45;&gt;AdminModule</title>
<path fill="none" stroke="black" d="M207,-84.82C207,-102.17 207,-125.8 207,-125.8 207,-125.8 345.55,-125.8 345.55,-125.8"/>
<polygon fill="black" stroke="black" points="345.55,-129.3 355.55,-125.8 345.55,-122.3 345.55,-129.3"/>
</g>
<!-- UserComponent -->
<g id="node5" class="node">
<title>UserComponent</title>
<polygon fill="#ffffb3" stroke="black" points="131.77,-84.8 24.23,-84.8 24.23,-48.8 131.77,-48.8 131.77,-84.8"/>
<text text-anchor="middle" x="78" y="-62.6" font-family="Times,serif" font-size="14.00">UserComponent</text>
</g>
<!-- UserComponent&#45;&gt;AdminModule -->
<g id="edge5" class="edge">
<title>UserComponent&#45;&gt;AdminModule</title>
<path fill="none" stroke="black" d="M78,-85.08C78,-106.12 78,-137.8 78,-137.8 78,-137.8 345.69,-137.8 345.69,-137.8"/>
<polygon fill="black" stroke="black" points="345.69,-141.3 355.69,-137.8 345.69,-134.3 345.69,-141.3"/>
</g>
<!-- AdminRoutingModule -->
<g id="node7" class="node">
<title>AdminRoutingModule</title>
<polygon fill="#8dd3c7" stroke="black" points="837.56,-84.8 834.56,-88.8 813.56,-88.8 810.56,-84.8 694.44,-84.8 694.44,-48.8 837.56,-48.8 837.56,-84.8"/>
<text text-anchor="middle" x="766" y="-62.6" font-family="Times,serif" font-size="14.00">AdminRoutingModule</text>
</g>
<!-- AdminRoutingModule&#45;&gt;AdminModule -->
<g id="edge6" class="edge">
<title>AdminRoutingModule&#45;&gt;AdminModule</title>
<path fill="none" stroke="black" d="M766,-85.08C766,-106.12 766,-137.8 766,-137.8 766,-137.8 464.44,-137.8 464.44,-137.8"/>
<polygon fill="black" stroke="black" points="464.44,-134.3 454.44,-137.8 464.44,-141.3 464.44,-134.3"/>
</g>
</g>
</svg>
