<?xml version="1.0" encoding="UTF-8" standalone="no"?>
<!DOCTYPE svg PUBLIC "-//W3C//DTD SVG 1.1//EN"
 "http://www.w3.org/Graphics/SVG/1.1/DTD/svg11.dtd">
<!-- Generated by graphviz version 5.0.0 (20220707.1540)
 -->
<!-- Title: dependencies Pages: 1 -->
<svg width="328pt" height="247pt"
 viewBox="0.00 0.00 328.00 246.80" xmlns="http://www.w3.org/2000/svg" xmlns:xlink="http://www.w3.org/1999/xlink">
<g id="graph0" class="graph" transform="scale(1 1) rotate(0) translate(4 242.8)">
<title>dependencies</title>
<polygon fill="white" stroke="transparent" points="-4,4 -4,-242.8 324,-242.8 324,4 -4,4"/>
<text text-anchor="middle" x="160" y="-8.2" font-family="sans-serif" font-size="14.00">dependencies</text>
<g id="clust1" class="cluster">
<title>cluster_ComponentsModule</title>
<polygon fill="none" stroke="black" stroke-dasharray="1,5" points="8,-32.8 8,-230.8 312,-230.8 312,-32.8 8,-32.8"/>
</g>
<g id="clust2" class="cluster">
<title>cluster_ComponentsModule_declarations</title>
<polygon fill="none" stroke="black" points="20,-40.8 20,-92.8 300,-92.8 300,-40.8 20,-40.8"/>
</g>
<g id="clust6" class="cluster">
<title>cluster_ComponentsModule_exports</title>
<polygon fill="none" stroke="black" points="16,-170.8 16,-222.8 304,-222.8 304,-170.8 16,-170.8"/>
</g>
<!-- NavbarComponent -->
<g id="node1" class="node">
<title>NavbarComponent</title>
<polygon fill="#ffffb3" stroke="black" points="292.03,-84.8 169.97,-84.8 169.97,-48.8 292.03,-48.8 292.03,-84.8"/>
<text text-anchor="middle" x="231" y="-62.6" font-family="Times,serif" font-size="14.00">NavbarComponent</text>
</g>
<!-- ComponentsModule -->
<g id="node3" class="node">
<title>ComponentsModule</title>
<polygon fill="#8dd3c7" stroke="black" points="156.33,-149.8 153.33,-153.8 132.33,-153.8 129.33,-149.8 25.67,-149.8 25.67,-113.8 156.33,-113.8 156.33,-149.8"/>
<text text-anchor="middle" x="91" y="-127.6" font-family="Times,serif" font-size="14.00">ComponentsModule</text>
</g>
<!-- NavbarComponent&#45;&gt;ComponentsModule -->
<g id="edge1" class="edge">
<title>NavbarComponent&#45;&gt;ComponentsModule</title>
<path fill="none" stroke="black" d="M251.51,-84.82C251.51,-102.17 251.51,-125.8 251.51,-125.8 251.51,-125.8 166.28,-125.8 166.28,-125.8"/>
<polygon fill="black" stroke="black" points="166.28,-122.3 156.28,-125.8 166.28,-129.3 166.28,-122.3"/>
</g>
<!-- SidebarComponent -->
<g id="node2" class="node">
<title>SidebarComponent</title>
<polygon fill="#ffffb3" stroke="black" points="152.1,-84.8 27.9,-84.8 27.9,-48.8 152.1,-48.8 152.1,-84.8"/>
<text text-anchor="middle" x="90" y="-62.6" font-family="Times,serif" font-size="14.00">SidebarComponent</text>
</g>
<!-- SidebarComponent&#45;&gt;ComponentsModule -->
<g id="edge2" class="edge">
<title>SidebarComponent&#45;&gt;ComponentsModule</title>
<path fill="none" stroke="black" d="M90,-84.91C90,-84.91 90,-103.79 90,-103.79"/>
<polygon fill="black" stroke="black" points="86.5,-103.79 90,-113.79 93.5,-103.79 86.5,-103.79"/>
</g>
<!-- NavbarComponent  -->
<g id="node4" class="node">
<title>NavbarComponent </title>
<polygon fill="#fb8072" stroke="black" points="296.03,-214.8 169.97,-214.8 169.97,-178.8 296.03,-178.8 296.03,-214.8"/>
<text text-anchor="middle" x="233" y="-192.6" font-family="Times,serif" font-size="14.00">NavbarComponent </text>
</g>
<!-- ComponentsModule&#45;&gt;NavbarComponent  -->
<g id="edge3" class="edge">
<title>ComponentsModule&#45;&gt;NavbarComponent </title>
<path fill="none" stroke="black" stroke-dasharray="5,2" d="M156.48,-137.8C184.43,-137.8 210.74,-137.8 210.74,-137.8 210.74,-137.8 210.74,-168.78 210.74,-168.78"/>
<polygon fill="black" stroke="black" points="207.24,-168.78 210.74,-178.78 214.24,-168.78 207.24,-168.78"/>
</g>
<!-- SidebarComponent  -->
<g id="node5" class="node">
<title>SidebarComponent </title>
<polygon fill="#fb8072" stroke="black" points="151.6,-214.8 24.4,-214.8 24.4,-178.8 151.6,-178.8 151.6,-214.8"/>
<text text-anchor="middle" x="88" y="-192.6" font-family="Times,serif" font-size="14.00">SidebarComponent </text>
</g>
<!-- ComponentsModule&#45;&gt;SidebarComponent  -->
<g id="edge4" class="edge">
<title>ComponentsModule&#45;&gt;SidebarComponent </title>
<path fill="none" stroke="black" stroke-dasharray="5,2" d="M88.82,-149.91C88.82,-149.91 88.82,-168.79 88.82,-168.79"/>
<polygon fill="black" stroke="black" points="85.32,-168.79 88.82,-178.79 92.32,-168.79 85.32,-168.79"/>
</g>
</g>
</svg>
