<?xml version="1.0" encoding="UTF-8" standalone="no"?>
<!DOCTYPE svg PUBLIC "-//W3C//DTD SVG 1.1//EN"
 "http://www.w3.org/Graphics/SVG/1.1/DTD/svg11.dtd">
<!-- Generated by graphviz version 5.0.0 (20220707.1540)
 -->
<!-- Title: dependencies Pages: 1 -->
<svg width="850pt" height="174pt"
 viewBox="0.00 0.00 850.00 173.80" xmlns="http://www.w3.org/2000/svg" xmlns:xlink="http://www.w3.org/1999/xlink">
<g id="graph0" class="graph" transform="scale(1 1) rotate(0) translate(4 169.8)">
<title>dependencies</title>
<polygon fill="white" stroke="transparent" points="-4,4 -4,-169.8 846,-169.8 846,4 -4,4"/>
<text text-anchor="middle" x="421" y="-8.2" font-family="sans-serif" font-size="14.00">dependencies</text>
<g id="clust1" class="cluster">
<title>cluster_PublicModule</title>
<polygon fill="none" stroke="black" stroke-dasharray="1,5" points="8,-32.8 8,-157.8 834,-157.8 834,-32.8 8,-32.8"/>
</g>
<g id="clust2" class="cluster">
<title>cluster_PublicModule_declarations</title>
<polygon fill="none" stroke="black" points="180,-40.8 180,-92.8 826,-92.8 826,-40.8 180,-40.8"/>
</g>
<g id="clust7" class="cluster">
<title>cluster_PublicModule_imports</title>
<polygon fill="none" stroke="black" points="16,-40.8 16,-92.8 172,-92.8 172,-40.8 16,-40.8"/>
</g>
<!-- UserHomeComponent -->
<g id="node1" class="node">
<title>UserHomeComponent</title>
<polygon fill="#ffffb3" stroke="black" points="817.98,-84.8 676.02,-84.8 676.02,-48.8 817.98,-48.8 817.98,-84.8"/>
<text text-anchor="middle" x="747" y="-62.6" font-family="Times,serif" font-size="14.00">UserHomeComponent</text>
</g>
<!-- PublicModule -->
<g id="node5" class="node">
<title>PublicModule</title>
<polygon fill="#8dd3c7" stroke="black" points="474.83,-149.8 471.83,-153.8 450.83,-153.8 447.83,-149.8 379.17,-149.8 379.17,-113.8 474.83,-113.8 474.83,-149.8"/>
<text text-anchor="middle" x="427" y="-127.6" font-family="Times,serif" font-size="14.00">PublicModule</text>
</g>
<!-- UserHomeComponent&#45;&gt;PublicModule -->
<g id="edge1" class="edge">
<title>UserHomeComponent&#45;&gt;PublicModule</title>
<path fill="none" stroke="black" d="M747,-85.08C747,-106.12 747,-137.8 747,-137.8 747,-137.8 484.91,-137.8 484.91,-137.8"/>
<polygon fill="black" stroke="black" points="484.91,-134.3 474.91,-137.8 484.91,-141.3 484.91,-134.3"/>
</g>
<!-- UserOrderComponent -->
<g id="node2" class="node">
<title>UserOrderComponent</title>
<polygon fill="#ffffb3" stroke="black" points="658.41,-84.8 517.59,-84.8 517.59,-48.8 658.41,-48.8 658.41,-84.8"/>
<text text-anchor="middle" x="588" y="-62.6" font-family="Times,serif" font-size="14.00">UserOrderComponent</text>
</g>
<!-- UserOrderComponent&#45;&gt;PublicModule -->
<g id="edge2" class="edge">
<title>UserOrderComponent&#45;&gt;PublicModule</title>
<path fill="none" stroke="black" d="M588,-84.82C588,-102.17 588,-125.8 588,-125.8 588,-125.8 484.87,-125.8 484.87,-125.8"/>
<polygon fill="black" stroke="black" points="484.87,-122.3 474.87,-125.8 484.87,-129.3 484.87,-122.3"/>
</g>
<!-- UserProfileComponent -->
<g id="node3" class="node">
<title>UserProfileComponent</title>
<polygon fill="#ffffb3" stroke="black" points="499.87,-84.8 354.13,-84.8 354.13,-48.8 499.87,-48.8 499.87,-84.8"/>
<text text-anchor="middle" x="427" y="-62.6" font-family="Times,serif" font-size="14.00">UserProfileComponent</text>
</g>
<!-- UserProfileComponent&#45;&gt;PublicModule -->
<g id="edge3" class="edge">
<title>UserProfileComponent&#45;&gt;PublicModule</title>
<path fill="none" stroke="black" d="M427,-84.91C427,-84.91 427,-103.79 427,-103.79"/>
<polygon fill="black" stroke="black" points="423.5,-103.79 427,-113.79 430.5,-103.79 423.5,-103.79"/>
</g>
<!-- UserUpdateComponent -->
<g id="node4" class="node">
<title>UserUpdateComponent</title>
<polygon fill="#ffffb3" stroke="black" points="336.19,-84.8 187.81,-84.8 187.81,-48.8 336.19,-48.8 336.19,-84.8"/>
<text text-anchor="middle" x="262" y="-62.6" font-family="Times,serif" font-size="14.00">UserUpdateComponent</text>
</g>
<!-- UserUpdateComponent&#45;&gt;PublicModule -->
<g id="edge4" class="edge">
<title>UserUpdateComponent&#45;&gt;PublicModule</title>
<path fill="none" stroke="black" d="M262,-84.82C262,-102.17 262,-125.8 262,-125.8 262,-125.8 369.28,-125.8 369.28,-125.8"/>
<polygon fill="black" stroke="black" points="369.28,-129.3 379.28,-125.8 369.28,-122.3 369.28,-129.3"/>
</g>
<!-- PublicRoutingModule -->
<g id="node6" class="node">
<title>PublicRoutingModule</title>
<polygon fill="#8dd3c7" stroke="black" points="164.45,-84.8 161.45,-88.8 140.45,-88.8 137.45,-84.8 23.55,-84.8 23.55,-48.8 164.45,-48.8 164.45,-84.8"/>
<text text-anchor="middle" x="94" y="-62.6" font-family="Times,serif" font-size="14.00">PublicRoutingModule</text>
</g>
<!-- PublicRoutingModule&#45;&gt;PublicModule -->
<g id="edge5" class="edge">
<title>PublicRoutingModule&#45;&gt;PublicModule</title>
<path fill="none" stroke="black" d="M94,-85.08C94,-106.12 94,-137.8 94,-137.8 94,-137.8 369.29,-137.8 369.29,-137.8"/>
<polygon fill="black" stroke="black" points="369.29,-141.3 379.29,-137.8 369.29,-134.3 369.29,-141.3"/>
</g>
</g>
</svg>
