<?xml version="1.0" encoding="UTF-8" standalone="no"?>
<!DOCTYPE svg PUBLIC "-//W3C//DTD SVG 1.1//EN"
 "http://www.w3.org/Graphics/SVG/1.1/DTD/svg11.dtd">
<!-- Generated by graphviz version 5.0.0 (20220707.1540)
 -->
<!-- Title: dependencies Pages: 1 -->
<svg width="3095pt" height="247pt"
 viewBox="0.00 0.00 3095.00 246.80" xmlns="http://www.w3.org/2000/svg" xmlns:xlink="http://www.w3.org/1999/xlink">
<g id="graph0" class="graph" transform="scale(1 1) rotate(0) translate(4 242.8)">
<title>dependencies</title>
<polygon fill="white" stroke="transparent" points="-4,4 -4,-242.8 3091,-242.8 3091,4 -4,4"/>
<text text-anchor="middle" x="1543.5" y="-8.2" font-family="sans-serif" font-size="14.00">dependencies</text>
<g id="clust1" class="cluster">
<title>cluster_AdminModule</title>
<polygon fill="none" stroke="black" stroke-dasharray="1,5" points="8,-32.8 8,-157.8 854,-157.8 854,-32.8 8,-32.8"/>
</g>
<g id="clust2" class="cluster">
<title>cluster_AdminModule_declarations</title>
<polygon fill="none" stroke="black" points="184,-40.8 184,-92.8 846,-92.8 846,-40.8 184,-40.8"/>
</g>
<g id="clust8" class="cluster">
<title>cluster_AdminModule_imports</title>
<polygon fill="none" stroke="black" points="16,-40.8 16,-92.8 176,-92.8 176,-40.8 16,-40.8"/>
</g>
<g id="clust18" class="cluster">
<title>cluster_AppModule</title>
<polygon fill="none" stroke="black" stroke-dasharray="1,5" points="862,-32.8 862,-230.8 1299,-230.8 1299,-32.8 862,-32.8"/>
</g>
<g id="clust19" class="cluster">
<title>cluster_AppModule_declarations</title>
<polygon fill="none" stroke="black" points="1022,-40.8 1022,-92.8 1291,-92.8 1291,-40.8 1022,-40.8"/>
</g>
<g id="clust22" class="cluster">
<title>cluster_AppModule_imports</title>
<polygon fill="none" stroke="black" points="870,-40.8 870,-92.8 1014,-92.8 1014,-40.8 870,-40.8"/>
</g>
<g id="clust24" class="cluster">
<title>cluster_AppModule_bootstrap</title>
<polygon fill="none" stroke="black" points="1033,-170.8 1033,-222.8 1157,-222.8 1157,-170.8 1033,-170.8"/>
</g>
<g id="clust32" class="cluster">
<title>cluster_AuthModule</title>
<polygon fill="none" stroke="black" stroke-dasharray="1,5" points="1307,-32.8 1307,-157.8 1933,-157.8 1933,-32.8 1307,-32.8"/>
</g>
<g id="clust33" class="cluster">
<title>cluster_AuthModule_declarations</title>
<polygon fill="none" stroke="black" points="1471,-40.8 1471,-92.8 1925,-92.8 1925,-40.8 1471,-40.8"/>
</g>
<g id="clust37" class="cluster">
<title>cluster_AuthModule_imports</title>
<polygon fill="none" stroke="black" points="1315,-40.8 1315,-92.8 1463,-92.8 1463,-40.8 1315,-40.8"/>
</g>
<g id="clust47" class="cluster">
<title>cluster_ComponentsModule</title>
<polygon fill="none" stroke="black" stroke-dasharray="1,5" points="1941,-32.8 1941,-230.8 2245,-230.8 2245,-32.8 1941,-32.8"/>
</g>
<g id="clust48" class="cluster">
<title>cluster_ComponentsModule_declarations</title>
<polygon fill="none" stroke="black" points="1953,-40.8 1953,-92.8 2233,-92.8 2233,-40.8 1953,-40.8"/>
</g>
<g id="clust52" class="cluster">
<title>cluster_ComponentsModule_exports</title>
<polygon fill="none" stroke="black" points="1949,-170.8 1949,-222.8 2237,-222.8 2237,-170.8 1949,-170.8"/>
</g>
<g id="clust55" class="cluster">
<title>cluster_PublicModule</title>
<polygon fill="none" stroke="black" stroke-dasharray="1,5" points="2253,-32.8 2253,-157.8 3079,-157.8 3079,-32.8 2253,-32.8"/>
</g>
<g id="clust56" class="cluster">
<title>cluster_PublicModule_declarations</title>
<polygon fill="none" stroke="black" points="2425,-40.8 2425,-92.8 3071,-92.8 3071,-40.8 2425,-40.8"/>
</g>
<g id="clust61" class="cluster">
<title>cluster_PublicModule_imports</title>
<polygon fill="none" stroke="black" points="2261,-40.8 2261,-92.8 2417,-92.8 2417,-40.8 2261,-40.8"/>
</g>
<!-- HeaderComponent -->
<g id="node1" class="node">
<title>HeaderComponent</title>
<polygon fill="#ffffb3" stroke="black" points="837.75,-84.8 716.25,-84.8 716.25,-48.8 837.75,-48.8 837.75,-84.8"/>
<text text-anchor="middle" x="777" y="-62.6" font-family="Times,serif" font-size="14.00">HeaderComponent</text>
</g>
<!-- AdminModule -->
<g id="node6" class="node">
<title>AdminModule</title>
<polygon fill="#8dd3c7" stroke="black" points="490.44,-149.8 487.44,-153.8 466.44,-153.8 463.44,-149.8 391.56,-149.8 391.56,-113.8 490.44,-113.8 490.44,-149.8"/>
<text text-anchor="middle" x="441" y="-127.6" font-family="Times,serif" font-size="14.00">AdminModule</text>
</g>
<!-- HeaderComponent&#45;&gt;AdminModule -->
<g id="edge1" class="edge">
<title>HeaderComponent&#45;&gt;AdminModule</title>
<path fill="none" stroke="black" d="M777,-84.91C777,-104.14 777,-131.8 777,-131.8 777,-131.8 500.58,-131.8 500.58,-131.8"/>
<polygon fill="black" stroke="black" points="500.58,-128.3 490.58,-131.8 500.58,-135.3 500.58,-128.3"/>
</g>
<!-- HomeComponent -->
<g id="node2" class="node">
<title>HomeComponent</title>
<polygon fill="#ffffb3" stroke="black" points="697.55,-84.8 582.45,-84.8 582.45,-48.8 697.55,-48.8 697.55,-84.8"/>
<text text-anchor="middle" x="640" y="-62.6" font-family="Times,serif" font-size="14.00">HomeComponent</text>
</g>
<!-- HomeComponent&#45;&gt;AdminModule -->
<g id="edge2" class="edge">
<title>HomeComponent&#45;&gt;AdminModule</title>
<path fill="none" stroke="black" d="M640,-84.83C640,-101.2 640,-122.8 640,-122.8 640,-122.8 500.45,-122.8 500.45,-122.8"/>
<polygon fill="black" stroke="black" points="500.45,-119.3 490.45,-122.8 500.45,-126.3 500.45,-119.3"/>
</g>
<!-- MenuComponent -->
<g id="node3" class="node">
<title>MenuComponent</title>
<polygon fill="#ffffb3" stroke="black" points="563.99,-84.8 450.01,-84.8 450.01,-48.8 563.99,-48.8 563.99,-84.8"/>
<text text-anchor="middle" x="507" y="-62.6" font-family="Times,serif" font-size="14.00">MenuComponent</text>
</g>
<!-- MenuComponent&#45;&gt;AdminModule -->
<g id="edge3" class="edge">
<title>MenuComponent&#45;&gt;AdminModule</title>
<path fill="none" stroke="black" d="M470.11,-84.91C470.11,-84.91 470.11,-103.79 470.11,-103.79"/>
<polygon fill="black" stroke="black" points="466.61,-103.79 470.11,-113.79 473.61,-103.79 466.61,-103.79"/>
</g>
<!-- OrderComponent -->
<g id="node4" class="node">
<title>OrderComponent</title>
<polygon fill="#ffffb3" stroke="black" points="431.98,-84.8 318.02,-84.8 318.02,-48.8 431.98,-48.8 431.98,-84.8"/>
<text text-anchor="middle" x="375" y="-62.6" font-family="Times,serif" font-size="14.00">OrderComponent</text>
</g>
<!-- OrderComponent&#45;&gt;AdminModule -->
<g id="edge4" class="edge">
<title>OrderComponent&#45;&gt;AdminModule</title>
<path fill="none" stroke="black" d="M411.88,-84.91C411.88,-84.91 411.88,-103.79 411.88,-103.79"/>
<polygon fill="black" stroke="black" points="408.38,-103.79 411.88,-113.79 415.38,-103.79 408.38,-103.79"/>
</g>
<!-- UserComponent -->
<g id="node5" class="node">
<title>UserComponent</title>
<polygon fill="#ffffb3" stroke="black" points="299.77,-84.8 192.23,-84.8 192.23,-48.8 299.77,-48.8 299.77,-84.8"/>
<text text-anchor="middle" x="246" y="-62.6" font-family="Times,serif" font-size="14.00">UserComponent</text>
</g>
<!-- UserComponent&#45;&gt;AdminModule -->
<g id="edge5" class="edge">
<title>UserComponent&#45;&gt;AdminModule</title>
<path fill="none" stroke="black" d="M246,-84.82C246,-102.17 246,-125.8 246,-125.8 246,-125.8 381.54,-125.8 381.54,-125.8"/>
<polygon fill="black" stroke="black" points="381.54,-129.3 391.54,-125.8 381.54,-122.3 381.54,-129.3"/>
</g>
<!-- AdminRoutingModule -->
<g id="node7" class="node">
<title>AdminRoutingModule</title>
<polygon fill="#8dd3c7" stroke="black" points="167.56,-84.8 164.56,-88.8 143.56,-88.8 140.56,-84.8 24.44,-84.8 24.44,-48.8 167.56,-48.8 167.56,-84.8"/>
<text text-anchor="middle" x="96" y="-62.6" font-family="Times,serif" font-size="14.00">AdminRoutingModule</text>
</g>
<!-- AdminRoutingModule&#45;&gt;AdminModule -->
<g id="edge6" class="edge">
<title>AdminRoutingModule&#45;&gt;AdminModule</title>
<path fill="none" stroke="black" d="M96,-85.08C96,-106.12 96,-137.8 96,-137.8 96,-137.8 381.57,-137.8 381.57,-137.8"/>
<polygon fill="black" stroke="black" points="381.57,-141.3 391.57,-137.8 381.57,-134.3 381.57,-141.3"/>
</g>
<!-- AppComponent -->
<g id="node8" class="node">
<title>AppComponent</title>
<polygon fill="#ffffb3" stroke="black" points="1282.94,-84.8 1177.06,-84.8 1177.06,-48.8 1282.94,-48.8 1282.94,-84.8"/>
<text text-anchor="middle" x="1230" y="-62.6" font-family="Times,serif" font-size="14.00">AppComponent</text>
</g>
<!-- AppModule -->
<g id="node10" class="node">
<title>AppModule</title>
<polygon fill="#8dd3c7" stroke="black" points="1136.66,-149.8 1133.66,-153.8 1112.66,-153.8 1109.66,-149.8 1053.34,-149.8 1053.34,-113.8 1136.66,-113.8 1136.66,-149.8"/>
<text text-anchor="middle" x="1095" y="-127.6" font-family="Times,serif" font-size="14.00">AppModule</text>
</g>
<!-- AppComponent&#45;&gt;AppModule -->
<g id="edge7" class="edge">
<title>AppComponent&#45;&gt;AppModule</title>
<path fill="none" stroke="black" d="M1230,-85.08C1230,-106.12 1230,-137.8 1230,-137.8 1230,-137.8 1146.97,-137.8 1146.97,-137.8"/>
<polygon fill="black" stroke="black" points="1146.97,-134.3 1136.97,-137.8 1146.97,-141.3 1146.97,-134.3"/>
</g>
<!-- Page404Component -->
<g id="node9" class="node">
<title>Page404Component</title>
<polygon fill="#ffffb3" stroke="black" points="1159.55,-84.8 1030.45,-84.8 1030.45,-48.8 1159.55,-48.8 1159.55,-84.8"/>
<text text-anchor="middle" x="1095" y="-62.6" font-family="Times,serif" font-size="14.00">Page404Component</text>
</g>
<!-- Page404Component&#45;&gt;AppModule -->
<g id="edge8" class="edge">
<title>Page404Component&#45;&gt;AppModule</title>
<path fill="none" stroke="black" d="M1095,-84.91C1095,-84.91 1095,-103.79 1095,-103.79"/>
<polygon fill="black" stroke="black" points="1091.5,-103.79 1095,-113.79 1098.5,-103.79 1091.5,-103.79"/>
</g>
<!-- AppComponent  -->
<g id="node12" class="node">
<title>AppComponent </title>
<polygon fill="#80b1d3" stroke="black" points="1149.44,-214.8 1040.56,-214.8 1040.56,-178.8 1149.44,-178.8 1149.44,-214.8"/>
<text text-anchor="middle" x="1095" y="-192.6" font-family="Times,serif" font-size="14.00">AppComponent </text>
</g>
<!-- AppModule&#45;&gt;AppComponent  -->
<g id="edge10" class="edge">
<title>AppModule&#45;&gt;AppComponent </title>
<path fill="none" stroke="black" stroke-dasharray="1,5" d="M1095,-149.91C1095,-149.91 1095,-168.79 1095,-168.79"/>
<polygon fill="black" stroke="black" points="1091.5,-168.79 1095,-178.79 1098.5,-168.79 1091.5,-168.79"/>
</g>
<!-- AppRoutingModule -->
<g id="node11" class="node">
<title>AppRoutingModule</title>
<polygon fill="#8dd3c7" stroke="black" points="1006.28,-84.8 1003.28,-88.8 982.28,-88.8 979.28,-84.8 877.72,-84.8 877.72,-48.8 1006.28,-48.8 1006.28,-84.8"/>
<text text-anchor="middle" x="942" y="-62.6" font-family="Times,serif" font-size="14.00">AppRoutingModule</text>
</g>
<!-- AppRoutingModule&#45;&gt;AppModule -->
<g id="edge9" class="edge">
<title>AppRoutingModule&#45;&gt;AppModule</title>
<path fill="none" stroke="black" d="M942,-85.09C942,-107.01 942,-140.8 942,-140.8 942,-140.8 1043.19,-140.8 1043.19,-140.8"/>
<polygon fill="black" stroke="black" points="1043.19,-144.3 1053.19,-140.8 1043.19,-137.3 1043.19,-144.3"/>
</g>
<!-- LoginComponent -->
<g id="node13" class="node">
<title>LoginComponent</title>
<polygon fill="#ffffb3" stroke="black" points="1917.27,-84.8 1802.73,-84.8 1802.73,-48.8 1917.27,-48.8 1917.27,-84.8"/>
<text text-anchor="middle" x="1860" y="-62.6" font-family="Times,serif" font-size="14.00">LoginComponent</text>
</g>
<!-- AuthModule -->
<g id="node16" class="node">
<title>AuthModule</title>
<polygon fill="#8dd3c7" stroke="black" points="1664.55,-149.8 1661.55,-153.8 1640.55,-153.8 1637.55,-149.8 1577.45,-149.8 1577.45,-113.8 1664.55,-113.8 1664.55,-149.8"/>
<text text-anchor="middle" x="1621" y="-127.6" font-family="Times,serif" font-size="14.00">AuthModule</text>
</g>
<!-- LoginComponent&#45;&gt;AuthModule -->
<g id="edge11" class="edge">
<title>LoginComponent&#45;&gt;AuthModule</title>
<path fill="none" stroke="black" d="M1860,-84.91C1860,-104.14 1860,-131.8 1860,-131.8 1860,-131.8 1674.56,-131.8 1674.56,-131.8"/>
<polygon fill="black" stroke="black" points="1674.56,-128.3 1664.56,-131.8 1674.56,-135.3 1674.56,-128.3"/>
</g>
<!-- ResetPasswordComponent -->
<g id="node14" class="node">
<title>ResetPasswordComponent</title>
<polygon fill="#ffffb3" stroke="black" points="1785.1,-84.8 1618.9,-84.8 1618.9,-48.8 1785.1,-48.8 1785.1,-84.8"/>
<text text-anchor="middle" x="1702" y="-62.6" font-family="Times,serif" font-size="14.00">ResetPasswordComponent</text>
</g>
<!-- ResetPasswordComponent&#45;&gt;AuthModule -->
<g id="edge12" class="edge">
<title>ResetPasswordComponent&#45;&gt;AuthModule</title>
<path fill="none" stroke="black" d="M1641.86,-84.91C1641.86,-84.91 1641.86,-103.79 1641.86,-103.79"/>
<polygon fill="black" stroke="black" points="1638.36,-103.79 1641.86,-113.79 1645.36,-103.79 1638.36,-103.79"/>
</g>
<!-- SignupComponent -->
<g id="node15" class="node">
<title>SignupComponent</title>
<polygon fill="#ffffb3" stroke="black" points="1600.51,-84.8 1479.49,-84.8 1479.49,-48.8 1600.51,-48.8 1600.51,-84.8"/>
<text text-anchor="middle" x="1540" y="-62.6" font-family="Times,serif" font-size="14.00">SignupComponent</text>
</g>
<!-- SignupComponent&#45;&gt;AuthModule -->
<g id="edge13" class="edge">
<title>SignupComponent&#45;&gt;AuthModule</title>
<path fill="none" stroke="black" d="M1588.86,-84.91C1588.86,-84.91 1588.86,-103.79 1588.86,-103.79"/>
<polygon fill="black" stroke="black" points="1585.36,-103.79 1588.86,-113.79 1592.36,-103.79 1585.36,-103.79"/>
</g>
<!-- AuthRoutingModule -->
<g id="node17" class="node">
<title>AuthRoutingModule</title>
<polygon fill="#8dd3c7" stroke="black" points="1455.17,-84.8 1452.17,-88.8 1431.17,-88.8 1428.17,-84.8 1322.83,-84.8 1322.83,-48.8 1455.17,-48.8 1455.17,-84.8"/>
<text text-anchor="middle" x="1389" y="-62.6" font-family="Times,serif" font-size="14.00">AuthRoutingModule</text>
</g>
<!-- AuthRoutingModule&#45;&gt;AuthModule -->
<g id="edge14" class="edge">
<title>AuthRoutingModule&#45;&gt;AuthModule</title>
<path fill="none" stroke="black" d="M1389,-84.82C1389,-102.17 1389,-125.8 1389,-125.8 1389,-125.8 1567.36,-125.8 1567.36,-125.8"/>
<polygon fill="black" stroke="black" points="1567.36,-129.3 1577.36,-125.8 1567.36,-122.3 1567.36,-129.3"/>
</g>
<!-- NavbarComponent -->
<g id="node18" class="node">
<title>NavbarComponent</title>
<polygon fill="#ffffb3" stroke="black" points="2225.03,-84.8 2102.97,-84.8 2102.97,-48.8 2225.03,-48.8 2225.03,-84.8"/>
<text text-anchor="middle" x="2164" y="-62.6" font-family="Times,serif" font-size="14.00">NavbarComponent</text>
</g>
<!-- ComponentsModule -->
<g id="node20" class="node">
<title>ComponentsModule</title>
<polygon fill="#8dd3c7" stroke="black" points="2089.33,-149.8 2086.33,-153.8 2065.33,-153.8 2062.33,-149.8 1958.67,-149.8 1958.67,-113.8 2089.33,-113.8 2089.33,-149.8"/>
<text text-anchor="middle" x="2024" y="-127.6" font-family="Times,serif" font-size="14.00">ComponentsModule</text>
</g>
<!-- NavbarComponent&#45;&gt;ComponentsModule -->
<g id="edge15" class="edge">
<title>NavbarComponent&#45;&gt;ComponentsModule</title>
<path fill="none" stroke="black" d="M2184.51,-84.93C2184.51,-105.37 2184.51,-135.8 2184.51,-135.8 2184.51,-135.8 2099.28,-135.8 2099.28,-135.8"/>
<polygon fill="black" stroke="black" points="2099.28,-132.3 2089.28,-135.8 2099.28,-139.3 2099.28,-132.3"/>
</g>
<!-- SidebarComponent -->
<g id="node19" class="node">
<title>SidebarComponent</title>
<polygon fill="#ffffb3" stroke="black" points="2085.1,-84.8 1960.9,-84.8 1960.9,-48.8 2085.1,-48.8 2085.1,-84.8"/>
<text text-anchor="middle" x="2023" y="-62.6" font-family="Times,serif" font-size="14.00">SidebarComponent</text>
</g>
<!-- SidebarComponent&#45;&gt;ComponentsModule -->
<g id="edge16" class="edge">
<title>SidebarComponent&#45;&gt;ComponentsModule</title>
<path fill="none" stroke="black" d="M2023,-84.91C2023,-84.91 2023,-103.79 2023,-103.79"/>
<polygon fill="black" stroke="black" points="2019.5,-103.79 2023,-113.79 2026.5,-103.79 2019.5,-103.79"/>
</g>
<!-- NavbarComponent  -->
<g id="node21" class="node">
<title>NavbarComponent </title>
<polygon fill="#fb8072" stroke="black" points="2229.03,-214.8 2102.97,-214.8 2102.97,-178.8 2229.03,-178.8 2229.03,-214.8"/>
<text text-anchor="middle" x="2166" y="-192.6" font-family="Times,serif" font-size="14.00">NavbarComponent </text>
</g>
<!-- ComponentsModule&#45;&gt;NavbarComponent  -->
<g id="edge17" class="edge">
<title>ComponentsModule&#45;&gt;NavbarComponent </title>
<path fill="none" stroke="black" stroke-dasharray="5,2" d="M2089.48,-142.8C2117.43,-142.8 2143.74,-142.8 2143.74,-142.8 2143.74,-142.8 2143.74,-168.52 2143.74,-168.52"/>
<polygon fill="black" stroke="black" points="2140.24,-168.52 2143.74,-178.52 2147.24,-168.52 2140.24,-168.52"/>
</g>
<!-- SidebarComponent  -->
<g id="node22" class="node">
<title>SidebarComponent </title>
<polygon fill="#fb8072" stroke="black" points="2084.6,-214.8 1957.4,-214.8 1957.4,-178.8 2084.6,-178.8 2084.6,-214.8"/>
<text text-anchor="middle" x="2021" y="-192.6" font-family="Times,serif" font-size="14.00">SidebarComponent </text>
</g>
<!-- ComponentsModule&#45;&gt;SidebarComponent  -->
<g id="edge18" class="edge">
<title>ComponentsModule&#45;&gt;SidebarComponent </title>
<path fill="none" stroke="black" stroke-dasharray="5,2" d="M2021.82,-149.91C2021.82,-149.91 2021.82,-168.79 2021.82,-168.79"/>
<polygon fill="black" stroke="black" points="2018.32,-168.79 2021.82,-178.79 2025.32,-168.79 2018.32,-168.79"/>
</g>
<!-- UserHomeComponent -->
<g id="node23" class="node">
<title>UserHomeComponent</title>
<polygon fill="#ffffb3" stroke="black" points="3062.98,-84.8 2921.02,-84.8 2921.02,-48.8 3062.98,-48.8 3062.98,-84.8"/>
<text text-anchor="middle" x="2992" y="-62.6" font-family="Times,serif" font-size="14.00">UserHomeComponent</text>
</g>
<!-- PublicModule -->
<g id="node27" class="node">
<title>PublicModule</title>
<polygon fill="#8dd3c7" stroke="black" points="2719.83,-149.8 2716.83,-153.8 2695.83,-153.8 2692.83,-149.8 2624.17,-149.8 2624.17,-113.8 2719.83,-113.8 2719.83,-149.8"/>
<text text-anchor="middle" x="2672" y="-127.6" font-family="Times,serif" font-size="14.00">PublicModule</text>
</g>
<!-- UserHomeComponent&#45;&gt;PublicModule -->
<g id="edge19" class="edge">
<title>UserHomeComponent&#45;&gt;PublicModule</title>
<path fill="none" stroke="black" d="M2992,-85.08C2992,-106.12 2992,-137.8 2992,-137.8 2992,-137.8 2729.91,-137.8 2729.91,-137.8"/>
<polygon fill="black" stroke="black" points="2729.91,-134.3 2719.91,-137.8 2729.91,-141.3 2729.91,-134.3"/>
</g>
<!-- UserOrderComponent -->
<g id="node24" class="node">
<title>UserOrderComponent</title>
<polygon fill="#ffffb3" stroke="black" points="2903.41,-84.8 2762.59,-84.8 2762.59,-48.8 2903.41,-48.8 2903.41,-84.8"/>
<text text-anchor="middle" x="2833" y="-62.6" font-family="Times,serif" font-size="14.00">UserOrderComponent</text>
</g>
<!-- UserOrderComponent&#45;&gt;PublicModule -->
<g id="edge20" class="edge">
<title>UserOrderComponent&#45;&gt;PublicModule</title>
<path fill="none" stroke="black" d="M2833,-84.82C2833,-102.17 2833,-125.8 2833,-125.8 2833,-125.8 2729.87,-125.8 2729.87,-125.8"/>
<polygon fill="black" stroke="black" points="2729.87,-122.3 2719.87,-125.8 2729.87,-129.3 2729.87,-122.3"/>
</g>
<!-- UserProfileComponent -->
<g id="node25" class="node">
<title>UserProfileComponent</title>
<polygon fill="#ffffb3" stroke="black" points="2744.87,-84.8 2599.13,-84.8 2599.13,-48.8 2744.87,-48.8 2744.87,-84.8"/>
<text text-anchor="middle" x="2672" y="-62.6" font-family="Times,serif" font-size="14.00">UserProfileComponent</text>
</g>
<!-- UserProfileComponent&#45;&gt;PublicModule -->
<g id="edge21" class="edge">
<title>UserProfileComponent&#45;&gt;PublicModule</title>
<path fill="none" stroke="black" d="M2672,-84.91C2672,-84.91 2672,-103.79 2672,-103.79"/>
<polygon fill="black" stroke="black" points="2668.5,-103.79 2672,-113.79 2675.5,-103.79 2668.5,-103.79"/>
</g>
<!-- UserUpdateComponent -->
<g id="node26" class="node">
<title>UserUpdateComponent</title>
<polygon fill="#ffffb3" stroke="black" points="2581.19,-84.8 2432.81,-84.8 2432.81,-48.8 2581.19,-48.8 2581.19,-84.8"/>
<text text-anchor="middle" x="2507" y="-62.6" font-family="Times,serif" font-size="14.00">UserUpdateComponent</text>
</g>
<!-- UserUpdateComponent&#45;&gt;PublicModule -->
<g id="edge22" class="edge">
<title>UserUpdateComponent&#45;&gt;PublicModule</title>
<path fill="none" stroke="black" d="M2507,-84.81C2507,-100.85 2507,-121.8 2507,-121.8 2507,-121.8 2614.28,-121.8 2614.28,-121.8"/>
<polygon fill="black" stroke="black" points="2614.28,-125.3 2624.28,-121.8 2614.28,-118.3 2614.28,-125.3"/>
</g>
<!-- PublicRoutingModule -->
<g id="node28" class="node">
<title>PublicRoutingModule</title>
<polygon fill="#8dd3c7" stroke="black" points="2409.45,-84.8 2406.45,-88.8 2385.45,-88.8 2382.45,-84.8 2268.55,-84.8 2268.55,-48.8 2409.45,-48.8 2409.45,-84.8"/>
<text text-anchor="middle" x="2339" y="-62.6" font-family="Times,serif" font-size="14.00">PublicRoutingModule</text>
</g>
<!-- PublicRoutingModule&#45;&gt;PublicModule -->
<g id="edge23" class="edge">
<title>PublicRoutingModule&#45;&gt;PublicModule</title>
<path fill="none" stroke="black" d="M2339,-85.07C2339,-103.36 2339,-128.8 2339,-128.8 2339,-128.8 2614.29,-128.8 2614.29,-128.8"/>
<polygon fill="black" stroke="black" points="2614.29,-132.3 2624.29,-128.8 2614.29,-125.3 2614.29,-132.3"/>
</g>
</g>
</svg>
